<svg width="281" height="192" viewBox="0 0 281 192" fill="none" xmlns="http://www.w3.org/2000/svg">
<path d="M108 108V91.6789C108 90.9672 108.178 90.3211 108.534 89.7406C108.89 89.1413 109.358 88.6637 109.938 88.3079C110.538 87.9521 111.193 87.7742 111.905 87.7742H124.293C125.005 87.7742 125.66 87.9521 126.26 88.3079C126.859 88.6637 127.336 89.1413 127.692 89.7406C128.048 90.3211 128.226 90.9672 128.226 91.6789V108H124.49V101.202H111.708V108H108ZM111.708 97.4939H124.49V91.8475C124.49 91.7538 124.452 91.6789 124.377 91.6227C124.302 91.5478 124.218 91.5104 124.125 91.5104H112.045C111.952 91.5104 111.867 91.5478 111.792 91.6227C111.736 91.6789 111.708 91.7538 111.708 91.8475V97.4939Z" fill="white"/>
<path d="M138.771 108V100.415L129.445 87.7742H133.827L140.653 96.3421L147.395 87.7742H151.862L142.507 100.443V108H138.771Z" fill="white"/>
<path d="M153.594 108V87.7742H169.887C170.599 87.7742 171.254 87.9521 171.853 88.3079C172.453 88.6637 172.93 89.1413 173.286 89.7406C173.642 90.3211 173.82 90.9672 173.82 91.6789V104.095C173.82 104.807 173.642 105.463 173.286 106.062C172.93 106.642 172.453 107.111 171.853 107.466C171.254 107.822 170.599 108 169.887 108H153.594ZM157.611 104.264H169.719C169.812 104.264 169.896 104.236 169.971 104.18C170.046 104.105 170.084 104.02 170.084 103.927V91.8475C170.084 91.7538 170.046 91.6789 169.971 91.6227C169.896 91.5478 169.812 91.5104 169.719 91.5104H157.611C157.517 91.5104 157.433 91.5478 157.358 91.6227C157.302 91.6789 157.274 91.7538 157.274 91.8475V103.927C157.274 104.02 157.302 104.105 157.358 104.18C157.433 104.236 157.517 104.264 157.611 104.264Z" fill="white"/>
<path d="M177.022 108V87.7742H195.647V91.5104H180.758V96.005H192.725V99.7693H180.758V104.264H195.647V108H177.022Z" fill="white"/>
<path d="M198.473 108V87.7742H202.547L214.963 102.55V87.7742H218.699V108H214.626L202.181 93.1958V108H198.473Z" fill="white"/>
<g filter="url(#filter0_bd_935_1549)">
<path d="M108 80.2259V60H123.507C124.218 60 124.864 60.1779 125.445 60.5337C126.044 60.8896 126.522 61.3671 126.878 61.9664C127.233 62.547 127.411 63.1931 127.411 63.9047V67.8656C127.411 68.1091 127.393 68.3432 127.355 68.5679C127.318 68.7927 127.252 69.008 127.158 69.214C127.477 69.6448 127.73 70.0942 127.917 70.5624C128.123 71.0306 128.226 71.4988 128.226 71.967V76.3212C128.226 77.0329 128.048 77.6883 127.692 78.2876C127.336 78.8682 126.859 79.3364 126.26 79.6922C125.66 80.048 125.005 80.2259 124.293 80.2259H108ZM112.045 76.4898H124.125C124.218 76.4898 124.302 76.4617 124.377 76.4055C124.452 76.3306 124.49 76.2463 124.49 76.1527V72.1356C124.49 72.0419 124.452 71.967 124.377 71.9108C124.302 71.8359 124.218 71.7985 124.125 71.7985H112.045C111.952 71.7985 111.867 71.8359 111.792 71.9108C111.736 71.967 111.708 72.0419 111.708 72.1356V76.1527C111.708 76.2463 111.736 76.3306 111.792 76.4055C111.867 76.4617 111.952 76.4898 112.045 76.4898ZM112.045 68.0623H123.338C123.432 68.0623 123.507 68.0342 123.563 67.978C123.619 67.9031 123.647 67.8188 123.647 67.7252V64.0733C123.647 63.9796 123.619 63.9047 123.563 63.8485C123.507 63.7736 123.432 63.7362 123.338 63.7362H112.045C111.952 63.7362 111.867 63.7736 111.792 63.8485C111.736 63.9047 111.708 63.9796 111.708 64.0733V67.7252C111.708 67.8188 111.736 67.9031 111.792 67.978C111.867 68.0342 111.952 68.0623 112.045 68.0623Z" fill="url(#paint0_linear_935_1549)"/>
<path d="M131.345 80.2259V60H149.97V63.7362H135.081V68.2308H147.048V71.9951H135.081V76.4898H149.97V80.2259H131.345Z" fill="url(#paint1_linear_935_1549)"/>
<path d="M152.796 80.2259V60H156.87L169.286 74.7762V60H173.022V80.2259H168.949L156.505 65.4217V80.2259H152.796Z" fill="url(#paint2_linear_935_1549)"/>
</g>
<defs>
<filter id="filter0_bd_935_1549" x="-104.248" y="-152.248" width="489.518" height="444.722" filterUnits="userSpaceOnUse" color-interpolation-filters="sRGB">
<feFlood flood-opacity="0" result="BackgroundImageFix"/>
<feGaussianBlur in="BackgroundImageFix" stdDeviation="106.124"/>
<feComposite in2="SourceAlpha" operator="in" result="effect1_backgroundBlur_935_1549"/>
<feColorMatrix in="SourceAlpha" type="matrix" values="0 0 0 0 0 0 0 0 0 0 0 0 0 0 0 0 0 0 127 0" result="hardAlpha"/>
<feOffset dy="4.42184"/>
<feGaussianBlur stdDeviation="53.6148"/>
<feComposite in2="hardAlpha" operator="out"/>
<feColorMatrix type="matrix" values="0 0 0 0 1 0 0 0 0 0.337255 0 0 0 0 0.964706 0 0 0 0.51 0"/>
<feBlend mode="normal" in2="effect1_backgroundBlur_935_1549" result="effect2_dropShadow_935_1549"/>
<feBlend mode="normal" in="SourceGraphic" in2="effect2_dropShadow_935_1549" result="shape"/>
</filter>
<linearGradient id="paint0_linear_935_1549" x1="108" y1="60" x2="185.846" y2="69.7377" gradientUnits="userSpaceOnUse">
<stop offset="0.183111" stop-color="#FF56F6"/>
<stop offset="0.432593" stop-color="#B936EE"/>
<stop offset="0.854443" stop-color="#3BACE2"/>
<stop offset="1" stop-color="#406AFF"/>
</linearGradient>
<linearGradient id="paint1_linear_935_1549" x1="108" y1="60" x2="185.846" y2="69.7377" gradientUnits="userSpaceOnUse">
<stop offset="0.183111" stop-color="#FF56F6"/>
<stop offset="0.432593" stop-color="#B936EE"/>
<stop offset="0.854443" stop-color="#3BACE2"/>
<stop offset="1" stop-color="#406AFF"/>
</linearGradient>
<linearGradient id="paint2_linear_935_1549" x1="108" y1="60" x2="185.846" y2="69.7377" gradientUnits="userSpaceOnUse">
<stop offset="0.183111" stop-color="#FF56F6"/>
<stop offset="0.432593" stop-color="#B936EE"/>
<stop offset="0.854443" stop-color="#3BACE2"/>
<stop offset="1" stop-color="#406AFF"/>
</linearGradient>
</defs>
</svg>
