<?xml version="1.0" encoding="utf-8"?>
<!-- Generator: Adobe Illustrator 22.1.0, SVG Export Plug-In . SVG Version: 6.00 Build 0)  -->
<svg version="1.1" id="Layer_1" xmlns="http://www.w3.org/2000/svg" xmlns:xlink="http://www.w3.org/1999/xlink" x="0px" y="0px"
	 viewBox="0 0 512 512" style="enable-background:new 0 0 512 512;" xml:space="preserve">
<style type="text/css">
	.st0{fill:#6770E6;}
	.st1{fill:#5861C7;}
	.st2{fill:#FFEFE4;}
	.st3{fill:#D476E2;}
	.st4{fill:#EA82FA;}
	.st5{fill:#B665C2;}
	.st6{fill:#69EBFC;}
	.st7{fill:#FF8354;}
	.st8{fill:#333399;}
	.st9{fill:#E0734A;}
	.st10{fill:#FFAC8C;}
	.st11{fill:#382F8B;}
	.st12{fill:#C7FCFE;}
	.st13{fill:#EDD4C2;}
	.st14{fill:#8F95E6;}
	.st15{fill:#A1F1FC;}
	.st16{fill:#FFF7F2;}
	.st17{opacity:0.8;fill:#A1F1FC;}
	.st18{fill:#4C54AD;}
	.st19{fill:#5FD4E3;}
	.st20{fill:#FFE4D1;}
	.st21{fill:#5ED4E3;}
	.st22{fill:#56C1CF;}
	.st23{fill:#9FA5FF;}
	.st24{fill:#C46541;}
	.st25{fill:#FFCAB5;}
	.st26{fill:#5A62C9;}
	.st27{fill:#BABEFF;}
</style>
<g>
	<path class="st3" d="M512,512H0l26.757-33.713c15.041-18.952,36.114-32.189,59.717-37.51L191.924,417h128.152l105.451,23.776
		c23.603,5.322,44.676,18.558,59.717,37.511L512,512z"/>
	<path class="st7" d="M512,512H0l26.757-33.713c15.041-18.952,36.114-32.189,59.717-37.51L191.924,417h128.152l105.451,23.776
		c23.603,5.322,44.676,18.558,59.717,37.511L512,512z"/>
	<rect id="XMLID_1236_" x="204" y="334.035" class="st20" width="104.001" height="82.965"/>
	<path class="st20" d="M256,488L256,488c35.388,0,64.076-28.688,64.076-64.076V417L308,414H204l-12.076,3v6.924
		C191.924,459.312,220.612,488,256,488z"/>
	<path id="XMLID_1122_" class="st8" d="M332.824,114.431c-3.263-12.621-17.191-30.509-69.97-30.509
		c-81.541,0-93.15,12.075-114.85-8.779c-18.31-17.595-29.061,67.083-4.649,93.976c-10.305,38.088-2.062,76.235-2.062,76.235H256
		h114.708C370.708,245.354,389.963,156.242,332.824,114.431z"/>
	<path id="XMLID_1123_" class="st0" d="M148.003,95.17c21.7,20.854,33.31,8.779,114.85,8.779c52.779,0,66.708,17.888,69.97,30.509
		c30.478,22.301,39.219,58.058,40.742,86.573c1.521-29.464-2.504-78.621-40.742-106.601c-3.263-12.621-17.191-30.509-69.97-30.509
		c-81.541,0-93.15,12.075-114.85-8.779c-12.002-11.533-20.755,20.877-18.487,52.151C131.195,104.068,138.602,86.136,148.003,95.17z"
		/>
	<path id="XMLID_2599_" class="st20" d="M164.459,249.361c0,0-9.89-18.118-29.671-18.118s-33.791,86.964,29.671,72.47V249.361z"/>
	<path id="XMLID_979_" class="st20" d="M347.541,249.361c0,0,9.89-18.118,29.671-18.118s33.791,86.964-29.671,72.47V249.361z"/>
	<path id="XMLID_816_" class="st2" d="M256,132.827c-151.545,0-122.569,248.543,0,248.543
		C378.57,381.37,407.546,132.827,256,132.827z"/>
	<path id="XMLID_2517_" class="st8" d="M256,119.297c0,0-103.079-14.541-103.079,117.716c0,0,12.979-54.665,42.754-69.573
		c13.869-6.944,18.947,10.647,60.324,10.647c41.378,0,46.456-17.591,60.324-10.647c29.776,14.908,42.754,69.573,42.754,69.573
		C359.078,104.756,256,119.297,256,119.297z"/>
	<path class="st19" d="M154.9,252h13.6v-78h-13.6c-12.371,0-22.4,10.029-22.4,22.4V229.6C132.5,241.971,142.529,252,154.9,252z"/>
	<path class="st19" d="M357.1,252h-13.6v-78h13.6c12.371,0,22.4,10.029,22.4,22.4V229.6C379.5,241.971,369.471,252,357.1,252z"/>
	<path class="st6" d="M379.5,231L379.5,231v-37l0,0c5.523,0,10,4.477,10,10v17C389.5,226.523,385.023,231,379.5,231z"/>
	<path class="st6" d="M132.5,231L132.5,231l0-37h0c-5.523,0-10,4.477-10,10v17C122.5,226.523,126.977,231,132.5,231z"/>
	<path class="st5" d="M324.122,187H187.878C165.302,187,147,205.302,147,227.878v37.244C147,287.698,165.302,306,187.878,306h30.826
		c6.355,0,12.21-3.445,15.296-9l0,0c3.086-5.555,8.941-9,15.296-9h13.409c6.355,0,12.21,3.445,15.296,9l0,0
		c3.086,5.555,8.941,9,15.296,9h30.826C346.698,306,365,287.698,365,265.122v-37.244C365,205.302,346.698,187,324.122,187z"/>
	<path class="st3" d="M324.122,278H187.878C165.302,278,147,259.698,147,237.122v-37.244C147,177.302,165.302,159,187.878,159
		h136.244C346.698,159,365,177.302,365,199.878v37.244C365,259.698,346.698,278,324.122,278z"/>
	<circle class="st6" cx="178.5" cy="193.5" r="13.5"/>
	<path class="st6" d="M259.5,199h-50c-3.038,0-5.5-2.462-5.5-5.5l0,0c0-3.038,2.462-5.5,5.5-5.5h50c3.038,0,5.5,2.462,5.5,5.5l0,0
		C265,196.538,262.538,199,259.5,199z"/>
	<path class="st6" d="M237.5,86.338V159h37V86.338c0-4.605-3.733-8.338-8.338-8.338h-20.324C241.233,78,237.5,81.733,237.5,86.338z"
		/>
	<polygon class="st0" points="77.501,424.041 23.001,396.792 23,333.016 77.5,360.265 	"/>
	<polygon class="st1" points="77.501,424.041 132,396.791 131.999,333.015 77.5,360.265 	"/>
	<polygon class="st14" points="77.499,305.766 23,333.016 77.5,360.265 131.999,333.015 	"/>
	<path id="XMLID_139_" class="st7" d="M451,99.026l-32.157,16.906c-3.751,1.972-8.136-1.213-7.419-5.39l6.141-35.807L391.55,49.375
		c-3.035-2.958-1.36-8.112,2.834-8.722l35.953-5.224L446.415,2.85c1.876-3.8,7.295-3.8,9.171,0l16.078,32.579l35.953,5.224
		c4.194,0.609,5.869,5.764,2.834,8.722l-26.016,25.359l6.141,35.807c0.716,4.177-3.668,7.363-7.419,5.39L451,99.026z"/>
	<path class="st9" d="M417.565,74.734L391.55,49.375c-0.869-0.847-1.34-1.874-1.488-2.923L390,46.395v11.87h0.039
		c0.122,1.1,0.601,2.184,1.511,3.071l24.258,23.646L417.565,74.734z"/>
	<path class="st9" d="M483.157,115.931L451,99.026l-32.157,16.906c-3.406,1.791-7.32-0.674-7.478-4.269l0,0v11.444
		c-0.01,0.173-0.007,0.342,0,0.51v0.001h0c0.155,3.598,4.071,6.066,7.479,4.274L451,110.986l32.157,16.906
		c3.299,1.734,7.084-0.521,7.462-3.93l0.003,0v-0.057c0.03-0.304,0.026-0.617,0-0.937v-11.013l-0.001,0
		C490.271,115.39,486.47,117.673,483.157,115.931z"/>
	<path class="st9" d="M512,46.442l-0.062,0.012c-0.149,1.048-0.62,2.075-1.488,2.921l-26.016,25.359l1.758,10.248l24.258-23.646
		c1.251-1.22,1.691-2.811,1.495-4.305L512,57.02V46.442z"/>
	<path id="XMLID_152_" class="st7" d="M23.411,234.86c1.951,0,3.533,1.582,3.533,3.533v10.494c0,1.951-1.582,3.533-3.533,3.533
		s-3.533-1.582-3.533-3.533v-10.494C19.878,236.442,21.46,234.86,23.411,234.86z"/>
	<path id="XMLID_151_" class="st7" d="M28.73,229.585c0-1.951,1.582-3.533,3.533-3.533h10.494c1.951,0,3.533,1.582,3.533,3.533
		c0,1.951-1.582,3.533-3.533,3.533H32.263C30.312,233.118,28.73,231.536,28.73,229.585z"/>
	<path id="XMLID_150_" class="st7" d="M23.455,224.266c-1.951,0-3.533-1.582-3.533-3.533v-10.494c0-1.951,1.582-3.533,3.533-3.533
		s3.533,1.582,3.533,3.533v10.494C26.988,222.684,25.406,224.266,23.455,224.266z"/>
	<path id="XMLID_149_" class="st7" d="M18.136,229.541c0,1.951-1.582,3.533-3.533,3.533H4.109c-1.951,0-3.533-1.582-3.533-3.533
		s1.582-3.533,3.533-3.533h10.494C16.554,226.008,18.136,227.59,18.136,229.541z"/>
	<path id="XMLID_148_" class="st6" d="M470.925,211.985c1.951,0,3.533,1.582,3.533,3.533v10.494c0,1.951-1.582,3.533-3.533,3.533
		c-1.951,0-3.533-1.582-3.533-3.533v-10.494C467.392,213.567,468.974,211.985,470.925,211.985z"/>
	<path id="XMLID_147_" class="st6" d="M476.244,206.71c0-1.951,1.582-3.533,3.533-3.533h10.494c1.951,0,3.533,1.582,3.533,3.533
		s-1.582,3.533-3.533,3.533h-10.494C477.826,210.243,476.244,208.661,476.244,206.71z"/>
	<path id="XMLID_146_" class="st6" d="M470.969,201.391c-1.951,0-3.533-1.582-3.533-3.533v-10.494c0-1.951,1.582-3.533,3.533-3.533
		s3.533,1.582,3.533,3.533v10.494C474.502,199.809,472.92,201.391,470.969,201.391z"/>
	<path id="XMLID_140_" class="st6" d="M465.65,206.666c0,1.951-1.582,3.533-3.533,3.533h-10.494c-1.951,0-3.533-1.582-3.533-3.533
		s1.582-3.533,3.533-3.533h10.494C464.068,203.133,465.65,204.715,465.65,206.666z"/>
	<circle class="st3" cx="90" cy="128" r="5"/>
	<circle class="st6" cx="285" cy="46" r="5"/>
	<circle class="st7" cx="448" cy="334" r="5"/>
</g>
</svg>
